<svg id="Capa_1" data-name="Capa 1" xmlns="http://www.w3.org/2000/svg" viewBox="0 0 16.04 16.11"><defs><style>.cls-1{fill:#0e153a;}.cls-2{fill:#3d5af1;}.cls-3{fill:#22d1ee;}.cls-4{font-size:1px;}.cls-4,.cls-7{fill:#e2f3f5;font-family:SegoeUIBlack-Italic, Segoe UI;font-style:italic;}.cls-5{letter-spacing:-0.02em;}.cls-6{letter-spacing:0em;}.cls-7{font-size:7.36px;stroke:#22d1ee;stroke-miterlimit:10;stroke-width:0.25px;}</style></defs><title>notes</title><rect class="cls-1" x="0.54" y="0.5" width="15" height="15" rx="0.29"/><path class="cls-1" d="M15,1V15H1V1H15m.21-1H.79A.79.79,0,0,0,0,.79V15.21A.79.79,0,0,0,.79,16H15.21a.79.79,0,0,0,.79-.79V.79A.79.79,0,0,0,15.21,0Z" transform="translate(0.04)"/><polygon class="cls-2" points="4.22 10.32 0.26 6.48 5.6 5.55 7.87 0.47 10.37 5.45 15.74 6.14 11.96 10.15 12.99 15.66 8.15 13.15 3.43 15.87 4.22 10.32"/><path class="cls-3" d="M7.83.76l2.36,4.68.06.12.13,0,5.06.65L11.86,10l-.08.1,0,.12,1,5.2L8.23,13.07,8.11,13,8,13.08,3.55,15.63l.74-5.23,0-.13-.09-.09L.48,6.56l5-.87.13,0,.05-.12L7.83.76m0-.58L5.47,5.44,0,6.4l4.09,4-.82,5.75,4.88-2.82,5,2.6-1.07-5.7L16,6l-5.55-.71L7.82.18Z" transform="translate(0.04)"/><polygon class="cls-2" points="6.15 10.58 1.41 9.8 5.17 6.4 4.75 1.5 8.87 3.88 13.34 1.65 12.12 6.5 15.32 10.01 10.45 10.65 7.93 15.04 6.15 10.58"/><path class="cls-3" d="M4.85,1.73,8.7,4,8.82,4,8.94,4l4.17-2.08L12,6.4l0,.13.09.1,3,3.28-4.57.6-.13,0-.06.11L7.91,14.76,6.25,10.6l0-.13-.14,0L1.64,9.71,5.16,6.53l.09-.08V6.33l-.39-4.6m-.29-.46L5,6.35,1.09,9.88,6,10.69l1.85,4.64,2.61-4.57,5-.66L12.21,6.46l1.27-5L8.83,3.73,4.56,1.27Z" transform="translate(0.04)"/><text class="cls-4" transform="translate(1.04 10.49) scale(1.47 1)">N<tspan class="cls-5" x="0.83" y="0">O</tspan><tspan class="cls-6" x="1.57" y="0">TES PERSONALS</tspan></text><text class="cls-7" transform="matrix(1.29, -0.01, 0.01, 1, 0.67, 8.21)">NP</text></svg>